<?xml version="1.0" encoding="UTF-8" standalone="no"?>
<!DOCTYPE svg PUBLIC "-//W3C//DTD SVG 1.1//EN" "http://www.w3.org/Graphics/SVG/1.1/DTD/svg11.dtd">
<svg version="1.1" xmlns="http://www.w3.org/2000/svg" xmlns:xlink="http://www.w3.org/1999/xlink" preserveAspectRatio="xMidYMid meet" viewBox="0 0 640 640" width="64" height="64"><defs><path d="M549.98 335.77C549.98 469.7 449.39 578.43 325.48 578.43C201.58 578.43 100.99 469.7 100.99 335.77C100.99 201.84 201.58 93.11 325.48 93.11C449.39 93.11 549.98 201.84 549.98 335.77Z" id="cnx3Fe2Pn"></path><path d="M439.2 225.69C443.1 229.6 443.1 235.93 439.2 239.84C394.76 284.28 268.51 410.52 224.07 454.96C220.16 458.87 213.83 458.87 209.93 454.96C206.69 451.72 204.04 449.08 200.8 445.84C196.9 441.93 196.9 435.6 200.8 431.7C245.24 387.26 371.49 261.01 415.93 216.57C419.84 212.67 426.17 212.67 430.07 216.57C433.31 219.81 435.96 222.46 439.2 225.69Z" id="bX6YK6arx"></path><path d="M209.93 216.57C213.83 212.67 220.16 212.67 224.07 216.57C268.51 261.01 394.76 387.26 439.2 431.7C443.1 435.6 443.1 441.93 439.2 445.84C435.96 449.08 433.31 451.72 430.07 454.96C426.17 458.87 419.84 458.87 415.93 454.96C371.49 410.52 245.24 284.28 200.8 239.84C196.9 235.93 196.9 229.6 200.8 225.69C204.04 222.46 206.69 219.81 209.93 216.57Z" id="acYlPXbwH"></path></defs><g><g><g><use xlink:href="#cnx3Fe2Pn" opacity="1" fill="#000000" fill-opacity="1"></use><g><use xlink:href="#cnx3Fe2Pn" opacity="1" fill-opacity="0" stroke="#f5f5f5" stroke-width="4" stroke-opacity="1"></use></g></g><g><use xlink:href="#bX6YK6arx" opacity="1" fill="#ffffff" fill-opacity="1"></use></g><g><use xlink:href="#acYlPXbwH" opacity="1" fill="#ffffff" fill-opacity="1"></use></g></g></g></svg>