<?xml version="1.0" encoding="UTF-8" standalone="no"?>
<!DOCTYPE svg PUBLIC "-//W3C//DTD SVG 1.1//EN" "http://www.w3.org/Graphics/SVG/1.1/DTD/svg11.dtd">
<svg version="1.1" xmlns="http://www.w3.org/2000/svg" xmlns:xlink="http://www.w3.org/1999/xlink" preserveAspectRatio="xMidYMid meet" viewBox="0 0 640 640" width="640" height="640"><defs><path d="M626.67 122.17C632.19 122.17 636.67 126.65 636.67 132.17C636.67 137.42 636.67 143.16 636.67 148.41C636.67 153.93 632.19 158.41 626.67 158.41C502.29 158.41 139.16 158.41 14.78 158.41C9.26 158.41 4.78 153.93 4.78 148.41C4.78 143.16 4.78 137.42 4.78 132.17C4.78 126.65 9.26 122.17 14.78 122.17C139.16 122.17 502.29 122.17 626.67 122.17Z" id="aqrtF2EcL"></path><path d="M626.67 237.83C632.19 237.83 636.67 242.3 636.67 247.83C636.67 253.07 636.67 258.81 636.67 264.06C636.67 269.58 632.19 274.06 626.67 274.06C531.28 274.06 255.1 274.06 159.71 274.06C154.19 274.06 149.71 269.58 149.71 264.06C149.71 258.81 149.71 253.07 149.71 247.83C149.71 242.3 154.19 237.83 159.71 237.83C255.1 237.83 531.28 237.83 626.67 237.83Z" id="cr9VaZ29g"></path><path d="M626.67 356.38C632.19 356.38 636.67 360.85 636.67 366.38C636.67 371.62 636.67 377.36 636.67 382.61C636.67 388.13 632.19 392.61 626.67 392.61C563.74 392.61 384.96 392.61 322.03 392.61C316.51 392.61 312.03 388.13 312.03 382.61C312.03 377.36 312.03 371.62 312.03 366.38C312.03 360.85 316.51 356.38 322.03 356.38C384.96 356.38 563.74 356.38 626.67 356.38Z" id="b8rThlFPv"></path></defs><g><g><g><use xlink:href="#aqrtF2EcL" opacity="1" fill="#ffffff" fill-opacity="1"></use><g><use xlink:href="#aqrtF2EcL" opacity="1" fill-opacity="0" stroke="#000000" stroke-width="1" stroke-opacity="1"></use></g></g><g><use xlink:href="#cr9VaZ29g" opacity="1" fill="#ffffff" fill-opacity="1"></use><g><use xlink:href="#cr9VaZ29g" opacity="1" fill-opacity="0" stroke="#000000" stroke-width="1" stroke-opacity="1"></use></g></g><g><use xlink:href="#b8rThlFPv" opacity="1" fill="#ffffff" fill-opacity="1"></use><g><use xlink:href="#b8rThlFPv" opacity="1" fill-opacity="0" stroke="#000000" stroke-width="1" stroke-opacity="1"></use></g></g></g></g></svg>