<?xml version="1.0" encoding="UTF-8" standalone="no"?>
<!DOCTYPE svg PUBLIC "-//W3C//DTD SVG 1.1//EN" "http://www.w3.org/Graphics/SVG/1.1/DTD/svg11.dtd">
<svg version="1.1" xmlns="http://www.w3.org/2000/svg" xmlns:xlink="http://www.w3.org/1999/xlink" preserveAspectRatio="xMidYMid meet" viewBox="0 0 640 640" width="640" height="640"><defs><path d="M69.28 375.8L598.26 375.8L598.26 445.36L69.28 445.36L69.28 375.8Z" id="kl0t1kTiU"></path><path d="M69.28 90L598.26 90L598.26 187.1L69.28 187.1L69.28 90Z" id="dlGUc1L1y"></path><path d="M69.28 300.43L598.26 300.43L598.26 370L69.28 370L69.28 300.43Z" id="ejWcY6qT1"></path><path d="M69.28 230.87L598.26 230.87L598.26 262.56L69.28 262.56L69.28 230.87Z" id="f9FGTJgzX"></path><path d="M69.28 191.74L598.26 191.74L598.26 230.87L69.28 230.87L69.28 191.74Z" id="a5WAGLPN7g"></path><path d="M69.28 262.56L598.26 262.56L598.26 297.54L69.28 297.54L69.28 262.56Z" id="a7krXhCs4"></path></defs><g><g><g><use xlink:href="#kl0t1kTiU" opacity="1" fill="#e7c594" fill-opacity="1"></use><g><use xlink:href="#kl0t1kTiU" opacity="1" fill-opacity="0" stroke="#000000" stroke-width="1" stroke-opacity="1"></use></g></g><g><use xlink:href="#dlGUc1L1y" opacity="1" fill="#e7c594" fill-opacity="1"></use><g><use xlink:href="#dlGUc1L1y" opacity="1" fill-opacity="0" stroke="#000000" stroke-width="1" stroke-opacity="1"></use></g></g><g><use xlink:href="#ejWcY6qT1" opacity="1" fill="#9b6b5b" fill-opacity="1"></use><g><use xlink:href="#ejWcY6qT1" opacity="1" fill-opacity="0" stroke="#000000" stroke-width="1" stroke-opacity="1"></use></g></g><g><use xlink:href="#f9FGTJgzX" opacity="1" fill="#f7664d" fill-opacity="1"></use><g><use xlink:href="#f9FGTJgzX" opacity="1" fill-opacity="0" stroke="#000000" stroke-width="1" stroke-opacity="1"></use></g></g><g><use xlink:href="#a5WAGLPN7g" opacity="1" fill="#afb348" fill-opacity="1"></use><g><use xlink:href="#a5WAGLPN7g" opacity="1" fill-opacity="0" stroke="#000000" stroke-width="1" stroke-opacity="1"></use></g></g><g><use xlink:href="#a7krXhCs4" opacity="1" fill="#e2c61d" fill-opacity="1"></use><g><use xlink:href="#a7krXhCs4" opacity="1" fill-opacity="0" stroke="#000000" stroke-width="1" stroke-opacity="1"></use></g></g></g></g></svg>